<?xml version="1.0" standalone="no"?><!DOCTYPE svg PUBLIC "-//W3C//DTD SVG 1.1//EN" "http://www.w3.org/Graphics/SVG/1.1/DTD/svg11.dtd"><svg t="1764512553592" class="icon" viewBox="0 0 1024 1024" version="1.1" xmlns="http://www.w3.org/2000/svg" p-id="11977" xmlns:xlink="http://www.w3.org/1999/xlink" width="200" height="200"><path d="M485.973 25.813C442.71 131.925 416.597 201.387 368.427 304.3c29.568 31.317 65.834 67.797 124.714 108.97-63.317-26.026-106.496-52.224-138.794-79.36C292.693 462.592 196.053 645.888 0 998.187 154.112 909.184 273.579 854.4 384.853 833.408a282.027 282.027 0 0 1-7.253-66.005l0.128-4.95c2.475-98.73 53.803-174.677 114.645-169.472 60.8 5.12 108.118 89.387 105.728 188.118a278.187 278.187 0 0 1-6.229 53.034c110.08 21.504 228.31 76.246 380.33 164.011-29.951-55.168-56.746-104.917-82.303-152.32-40.235-31.147-82.219-71.765-167.808-115.755 58.88 15.318 100.992 32.939 133.802 52.651-259.84-483.584-280.746-547.883-369.92-756.907zM976.981 911.36v-26.581h-9.984v-3.584h23.979v3.584h-10.027v26.581h-3.968m18.134 0v-30.165h6.058l7.126 21.333a157.867 157.867 0 0 1 1.45 4.565c0.342-1.109 0.854-2.73 1.622-4.864l7.21-21.034H1024v30.165h-3.883v-25.301l-8.832 25.301h-3.541l-8.747-25.685v25.685h-3.882" fill="#1296DB" p-id="11978"></path></svg>