<?xml version="1.0" standalone="no"?><!DOCTYPE svg PUBLIC "-//W3C//DTD SVG 1.1//EN" "http://www.w3.org/Graphics/SVG/1.1/DTD/svg11.dtd"><svg t="1726666473685" class="icon" viewBox="0 0 1024 1024" version="1.1" xmlns="http://www.w3.org/2000/svg" p-id="12956" xmlns:xlink="http://www.w3.org/1999/xlink" width="44" height="44"><path d="M616.96 553.12l16.626-14.32c-13.806 3.37-27.834 3.442-41.97 2.16-16.958 0.22 3.222 8.754 25.344 12.16z m65.704-34.884c10.108-13.954 17.47-29.208 20.07-44.994-2.272 11.244-8.388 20.95-14.138 31.204-31.716 19.96-2.966-11.866 0-23.952-34.096 42.924-4.688 25.766-5.932 37.74z m33.62-87.44c2.052-30.546-6.006-20.914-8.716-9.23 3.15 1.648 5.676 21.534 8.716 9.228zM527.266 13.164c9.046 1.612 19.558 2.858 18.092 5.018 9.89-2.16 12.16-4.176-18.092-5.018z m-5.44 637.228c-24.428-11.426-46.786-28.714-65.172-49.846 9.742 14.284 20.29 28.164 33.878 39.08-23.036-7.802-53.764-55.78-62.738-57.72 39.7 71.05 161 124.596 224.544 98.042-29.41 1.062-66.73 0.586-99.764-11.61-12.71-6.556-29.556-19.484-29.702-23.732-0.624 1.648-1.704 3.296-1.044 5.786z m365.77-284.46c0.292-15.566 4.302-8.24 5.878-12.088-3.078-1.758-11.098-13.696-15.968-36.588 3.552-5.382 9.448 13.954 14.282 14.76-3.112-18.2-8.422-32.082-8.642-46.072-14.064-29.41-4.98 3.918-16.408-12.636-14.98-46.734 12.416-10.84 14.284-32.046 22.706 32.888 35.634 83.832 41.568 104.964-4.54-25.746-11.866-50.65-20.802-74.786 6.884 2.894-11.1-52.96 8.972-15.968-21.426-78.852-91.708-152.54-156.386-187.114 7.91 7.252 17.91 16.334 14.32 17.762-32.156-19.154-26.516-20.656-31.094-28.714-26.224-10.656-27.908 0.844-45.268 0.038-49.37-26.188-58.892-23.404-104.342-39.812l2.086 9.67c-32.704-10.878-38.126 4.138-73.468 0.036-2.16-1.684 11.318-6.08 22.414-7.692-31.644 4.176-30.14-6.226-61.09 1.136 7.62-5.346 15.676-8.9 23.844-13.44-25.784 1.574-61.566 15.016-50.542 2.782-42.08 18.788-116.796 45.122-158.73 84.456l-1.32-8.826C271.96 108.83 207.388 154.646 202.26 184.532l-5.126 1.208c-10 16.92-16.48 36.112-24.392 53.546-13.076 22.268-19.192 8.57-17.324 12.048-25.71 52.154-38.492 95.956-49.516 131.886 7.874 11.756 0.184 70.758 3.15 118.004-12.928 233.26 163.71 459.708 356.76 512.008 28.308 10.108 70.39 9.742 106.172 10.768-42.228-12.086-47.684-6.41-88.814-20.73-29.666-13.99-36.184-29.92-57.208-48.16l8.314 14.686c-41.24-14.576-23.988-18.056-57.536-28.678l8.9-11.61c-13.368-1.024-35.38-22.524-41.422-34.426l-14.614 0.586c-17.58-21.68-26.92-37.284-26.224-49.37l-4.724 8.424c-5.346-9.192-64.606-81.27-33.878-64.496-5.712-5.236-13.294-8.496-21.534-23.44l6.262-7.14c-14.796-19.046-27.212-43.438-26.296-51.568 7.91 10.658 13.368 12.636 18.788 14.466-37.356-92.696-39.444-5.09-67.754-94.344l5.97-0.476c-4.58-6.922-7.362-14.43-11.06-21.792l2.6-25.966c-26.884-31.094-7.51-132.252-3.628-187.7 2.674-22.56 22.452-46.586 37.468-84.236l-9.156-1.576c17.506-30.544 99.948-122.618 138.146-117.894 18.496-23.22-3.66-0.072-7.288-5.932 40.618-42.046 53.4-29.702 80.83-37.284 29.556-17.544-25.38 6.848-11.352-6.702 51.126-13.04 36.22-29.666 102.914-36.296 7.032 3.992-16.334 6.19-22.194 11.392 42.594-20.84 134.778-16.116 194.658 11.572 69.476 32.486 147.56 128.442 150.636 218.758l3.516 0.952c-1.758 35.892 5.494 77.424-7.106 115.55l8.57-18.056c0.99 27.432-8.02 40.764-16.186 64.312l-14.688 7.326c-12.012 23.292 1.172 14.796-7.434 33.328-18.752 16.664-56.84 52.116-69.038 55.34-8.9-0.184 6.044-10.512 7.986-14.54-25.052 17.212-20.108 25.856-58.454 36.33l-1.134-2.49c-94.6 44.5-225.974-43.692-224.252-164.004-1.026 7.654-2.856 5.714-4.98 8.826-4.872-61.932 28.602-124.082 85.04-149.464 55.23-27.32 119.946-16.114 159.5 20.73-21.72-28.458-64.972-58.636-116.21-55.816-50.212 0.806-97.164 32.706-112.84 67.316-25.71 16.188-28.712 62.408-39.92 70.868-15.088 110.826 28.348 158.694 101.852 215.022 5.934 3.992 6.684 6.19 6.172 8.24 86.69 32.376 176.292 24.466 251.3-35.672 19.08-14.87 39.92-40.14 45.962-40.506-9.082 13.66 1.54 6.556-5.42 18.606 19.008-30.656-8.278-12.49 19.666-52.96l10.33 14.21c-3.846-25.454 31.606-56.364 28.016-96.614 8.132-12.306 5.728 28.84 0.44 41.568 11.976-31.424 3.15-36.478 6.226-62.408 3.334 8.716 7.692 17.982 9.926 27.176-7.8-30.362 7.984-51.128 11.902-68.78-3.846-1.722-12.068 13.33-13.934-22.526zM404.024 576.12c11.134 15.162 19.998 31.57 34.244 43.4-10.254-19.996-17.836-28.274-31.862-55.302-4.7-2.102-4.366 5.084-2.38 11.902z m28.752-12.928c-5.898-6.52-9.414-14.394-13.296-22.232 3.736 13.772 11.39 25.564 18.532 37.614l-5.236-15.382z m434.4-0.77c16.7-31.424 27.542-65.776 32.048-100.606l-2.492 6.262c-4.578 32.45-14.43 64.568-29.554 94.344zM570.998 0c-15.86 1.32-31.644 2.106-47.246 4.12l6.886 0.952c11.462-4.212 28.2-2.326 40.36-5.072zM132.564 237.014c11.794-26.516-3.26-9.52-4.578-16.59 1.832 23.55-18.128 32.45 4.58 16.59z m-23.476 59.88c-14.686 18.79-6.774 22.782-8.314 35.564 5.312-16.334 6.264-26.114 8.314-35.562z" fill="#D0094D" p-id="12957"></path></svg>